<svg width="16" height="16" viewBox="0 0 16 16" fill="none" xmlns="http://www.w3.org/2000/svg">
<g clip-path="url(#clip0_1002_41)">
<mask id="mask0_1002_41" style="mask-type:luminance" maskUnits="userSpaceOnUse" x="0" y="0" width="16" height="16">
<path d="M0.0150146 16V0.0100098H16V16H0.0150146Z" fill="#73BBA3"/>
</mask>
<g mask="url(#mask0_1002_41)">
<path fill-rule="evenodd" clip-rule="evenodd" d="M16 8C16 12.4183 12.4183 16 8 16C3.58175 16 0 12.4183 0 8C0 3.58175 3.58175 0 8 0C12.4183 0 16 3.58175 16 8Z" fill="#C9184A"/>
</g>
<path fill-rule="evenodd" clip-rule="evenodd" d="M4.35624 12.7665C4.00199 12.7665 3.67324 12.6283 3.46274 12.355C3.06449 11.837 3.24149 11.0318 3.85899 10.556C4.0603 10.4012 4.29536 10.2962 4.54499 10.2495L4.53899 10.2468C4.53899 10.2468 4.55624 10.245 4.58224 10.2408L4.61324 10.2345C4.81374 10.197 5.49999 9.85277 5.49999 9.10952V5.86102C5.49999 5.56677 5.62224 5.25477 5.91674 5.16502L10.7167 4.25802C10.7671 4.2421 10.8196 4.23384 10.8725 4.23352C11.091 4.23352 11.25 4.38852 11.25 4.62852V10.211C11.25 10.9375 10.9407 11.4025 10.6282 11.6435C10.3365 11.8683 9.99874 11.9793 9.68149 11.9793C9.32699 11.9793 8.99824 11.8405 8.78749 11.5673C8.38874 11.0493 8.56624 10.244 9.18399 9.76827C9.38682 9.61172 9.62419 9.50603 9.87624 9.46002L9.87299 9.45902L9.89524 9.45627L9.94749 9.44677C10.1487 9.40877 10.75 9.23827 10.75 8.49577V6.39127L5.99999 7.29852V10.6328C5.99999 11.711 5.55449 12.237 5.30324 12.4308C5.01149 12.6555 4.67374 12.7665 4.35624 12.7665Z" fill="#C9184A" fill-opacity="0.5"/>
<path fill-rule="evenodd" clip-rule="evenodd" d="M3.46274 11.8551C3.86174 12.3728 4.68574 12.4066 5.30324 11.9308C5.55449 11.7371 5.99999 11.2111 5.99999 10.1328V6.79856L10.75 5.89131V7.99581C10.75 8.73831 10.1487 8.90881 9.94749 8.94681L9.89524 8.95632L9.87299 8.95906L9.87624 8.96006C9.62419 9.00607 9.38682 9.11177 9.18399 9.26832C8.56624 9.74407 8.38874 10.5493 8.78774 11.0673C9.18649 11.5851 10.0105 11.6193 10.6282 11.1436C10.9407 10.9026 11.25 10.4376 11.25 9.71107V4.12856C11.25 3.83431 11.011 3.66781 10.7167 3.75806L5.91674 4.66506C5.62224 4.75481 5.49999 5.06681 5.49999 5.36106V8.60956C5.49999 9.35281 4.81374 9.69706 4.61324 9.73456L4.58224 9.74082C4.55624 9.74507 4.53899 9.74681 4.53899 9.74681L4.54499 9.74957C4.29536 9.79622 4.0603 9.90124 3.85899 10.0561C3.24149 10.5318 3.06449 11.3371 3.46274 11.8551Z" fill="#FFFFFE"/>
</g>
<defs>
<clipPath id="clip0_1002_41">
<rect width="16" height="16" fill="white"/>
</clipPath>
</defs>
</svg>
